<?xml version="1.0" encoding="UTF-8" standalone="no"?>
<!DOCTYPE svg PUBLIC "-//W3C//DTD SVG 1.1//EN"
 "http://www.w3.org/Graphics/SVG/1.1/DTD/svg11.dtd">
<!-- Generated by graphviz version 14.1.3 (20260303.0454)
 -->
<!-- Title: Aplicacion Pages: 1 -->
<svg width="1123pt" height="656pt"
 viewBox="0.00 0.00 1123.00 656.00" xmlns="http://www.w3.org/2000/svg" xmlns:xlink="http://www.w3.org/1999/xlink">
<g id="graph0" class="graph" transform="scale(1 1) rotate(0) translate(12.96 643.16)">
<title>Aplicacion</title>
<polygon fill="white" stroke="none" points="-12.96,12.96 -12.96,-643.16 1109.62,-643.16 1109.62,12.96 -12.96,12.96"/>
<!-- ControladorJuego -->
<g id="node1" class="node">
<title>ControladorJuego</title>
<polygon fill="none" stroke="#475569" stroke-width="1.3" points="513.6,-484.5 513.6,-629.7 760.94,-629.7 760.94,-484.5 513.6,-484.5"/>
<text xml:space="preserve" text-anchor="middle" x="637.27" y="-607.2" font-family="Arial" font-size="17.00">ControladorJuego</text>
<polyline fill="none" stroke="#475569" stroke-width="1.3" points="513.6,-594.9 760.94,-594.9"/>
<text xml:space="preserve" text-anchor="start" x="522.96" y="-572.4" font-family="Arial" font-size="17.00">&#45; partida: IPartida</text>
<text xml:space="preserve" text-anchor="start" x="522.96" y="-552" font-family="Arial" font-size="17.00">&#45; vista: IVistaJuego</text>
<text xml:space="preserve" text-anchor="start" x="522.96" y="-531.6" font-family="Arial" font-size="17.00">&#45; servicio: ServicioEstadisticas</text>
<polyline fill="none" stroke="#475569" stroke-width="1.3" points="513.6,-519.3 760.94,-519.3"/>
<text xml:space="preserve" text-anchor="start" x="522.96" y="-496.8" font-family="Arial" font-size="17.00">+ abrir(): void</text>
</g>
<!-- IPartida -->
<g id="node2" class="node">
<title>IPartida</title>
<polygon fill="none" stroke="#475569" stroke-width="1.3" points="63.9,-327.9 63.9,-417.9 348.64,-417.9 348.64,-327.9 63.9,-327.9"/>
<text xml:space="preserve" text-anchor="middle" x="206.27" y="-395.4" font-family="Arial" font-size="17.00">«interface»</text>
<text xml:space="preserve" text-anchor="middle" x="206.27" y="-375" font-family="Arial" font-size="17.00">IPartida</text>
<polyline fill="none" stroke="#475569" stroke-width="1.3" points="63.9,-362.7 348.64,-362.7"/>
<text xml:space="preserve" text-anchor="start" x="73.26" y="-340.2" font-family="Arial" font-size="17.00">+ getResultado(): ResultadoPartida</text>
</g>
<!-- ControladorJuego&#45;&gt;IPartida -->
<g id="edge1" class="edge">
<title>ControladorJuego&#45;&gt;IPartida</title>
<path fill="none" stroke="#475569" d="M513.19,-503.64C452.39,-477.94 379.67,-447.2 320.29,-422.1"/>
<polygon fill="#475569" stroke="#475569" points="312.75,-418.91 322.07,-418.7 315.54,-420.09 320.58,-422.22 320.58,-422.22 320.58,-422.22 315.54,-420.09 319.09,-425.74 312.75,-418.91"/>
<text xml:space="preserve" text-anchor="middle" x="432.2" y="-451.2" font-family="Arial" font-size="12.00">partida 1</text>
</g>
<!-- IVistaJuego -->
<g id="node4" class="node">
<title>IVistaJuego</title>
<polygon fill="none" stroke="#475569" stroke-width="1.3" points="404.41,-327.9 404.41,-417.9 534.13,-417.9 534.13,-327.9 404.41,-327.9"/>
<text xml:space="preserve" text-anchor="middle" x="469.27" y="-395.4" font-family="Arial" font-size="17.00">«interface»</text>
<text xml:space="preserve" text-anchor="middle" x="469.27" y="-375" font-family="Arial" font-size="17.00">IVistaJuego</text>
<polyline fill="none" stroke="#475569" stroke-width="1.3" points="404.41,-362.7 534.13,-362.7"/>
<text xml:space="preserve" text-anchor="start" x="413.77" y="-340.2" font-family="Arial" font-size="17.00">+ cerrar(): void</text>
</g>
<!-- ControladorJuego&#45;&gt;IVistaJuego -->
<g id="edge2" class="edge">
<title>ControladorJuego&#45;&gt;IVistaJuego</title>
<path fill="none" stroke="#475569" d="M570.87,-484.09C552.82,-464.51 533.62,-443.69 516.84,-425.49"/>
<polygon fill="#475569" stroke="#475569" points="511.12,-419.28 519.69,-422.94 513.17,-421.51 516.88,-425.53 516.88,-425.53 516.88,-425.53 513.17,-421.51 514.07,-428.13 511.12,-419.28"/>
<text xml:space="preserve" text-anchor="middle" x="565.57" y="-451.2" font-family="Arial" font-size="12.00">vista 1</text>
</g>
<!-- EstadoVistaJuego -->
<g id="node7" class="node">
<title>EstadoVistaJuego</title>
<polygon fill="none" stroke="#475569" stroke-width="1.3" points="542.3,-10.7 542.3,-80.3 746.24,-80.3 746.24,-10.7 542.3,-10.7"/>
<text xml:space="preserve" text-anchor="middle" x="644.27" y="-57.8" font-family="Arial" font-size="17.00">EstadoVistaJuego</text>
<polyline fill="none" stroke="#475569" stroke-width="1.3" points="542.3,-45.5 746.24,-45.5"/>
<text xml:space="preserve" text-anchor="middle" x="644.27" y="-23" font-family="Arial" font-size="17.00">«instantánea inmutable»</text>
</g>
<!-- ControladorJuego&#45;&gt;EstadoVistaJuego -->
<g id="edge7" class="edge">
<title>ControladorJuego&#45;&gt;EstadoVistaJuego</title>
<path fill="none" stroke="#475569" stroke-dasharray="5,2" d="M638.26,-483.9C639.73,-376.69 642.46,-178.62 643.66,-90.62"/>
<polygon fill="#475569" stroke="#475569" points="643.78,-82.17 647.49,-90.72 643.74,-85.2 643.66,-90.67 643.66,-90.67 643.66,-90.67 643.74,-85.2 639.84,-90.61 643.78,-82.17"/>
<text xml:space="preserve" text-anchor="middle" x="652.64" y="-287.4" font-family="Arial" font-size="12.00">crea</text>
</g>
<!-- ServicioEstadisticas -->
<g id="node8" class="node">
<title>ServicioEstadisticas</title>
<polygon fill="none" stroke="#475569" stroke-width="1.3" points="700.6,-320.7 700.6,-425.1 999.94,-425.1 999.94,-320.7 700.6,-320.7"/>
<text xml:space="preserve" text-anchor="middle" x="850.27" y="-402.6" font-family="Arial" font-size="17.00">ServicioEstadisticas</text>
<polyline fill="none" stroke="#475569" stroke-width="1.3" points="700.6,-390.3 999.94,-390.3"/>
<text xml:space="preserve" text-anchor="start" x="709.96" y="-367.8" font-family="Arial" font-size="17.00">&#45; repositorio: IRepositorioEstadisticas</text>
<polyline fill="none" stroke="#475569" stroke-width="1.3" points="700.6,-355.5 999.94,-355.5"/>
<text xml:space="preserve" text-anchor="start" x="709.96" y="-333" font-family="Arial" font-size="17.00">+ consultarMaquinas(): Estadisticas</text>
</g>
<!-- ControladorJuego&#45;&gt;ServicioEstadisticas -->
<g id="edge8" class="edge">
<title>ControladorJuego&#45;&gt;ServicioEstadisticas</title>
<path fill="none" stroke="#475569" d="M721.45,-484.09C741.66,-466.8 763,-448.55 782.36,-431.99"/>
<polygon fill="#475569" stroke="#475569" points="788.75,-426.52 784.78,-434.95 786.45,-428.49 782.29,-432.05 782.29,-432.05 782.29,-432.05 786.45,-428.49 779.81,-429.14 788.75,-426.52"/>
<text xml:space="preserve" text-anchor="middle" x="788.19" y="-451.2" font-family="Arial" font-size="12.00">servicio 1</text>
</g>
<!-- Partida -->
<g id="node3" class="node">
<title>Partida</title>
<polygon fill="none" stroke="#475569" stroke-width="1.3" points="0,-136.5 0,-261.3 270.54,-261.3 270.54,-136.5 0,-136.5"/>
<text xml:space="preserve" text-anchor="middle" x="135.27" y="-238.8" font-family="Arial" font-size="17.00">Partida</text>
<polyline fill="none" stroke="#475569" stroke-width="1.3" points="0,-226.5 270.54,-226.5"/>
<text xml:space="preserve" text-anchor="start" x="9.36" y="-204" font-family="Arial" font-size="17.00">&#45; estado: EstadoPartida</text>
<text xml:space="preserve" text-anchor="start" x="9.36" y="-183.6" font-family="Arial" font-size="17.00">&#45; fase: int</text>
<polyline fill="none" stroke="#475569" stroke-width="1.3" points="0,-171.3 270.54,-171.3"/>
<text xml:space="preserve" text-anchor="start" x="9.36" y="-148.8" font-family="Arial" font-size="17.00">+ iniciar(modo: ModoJuego): void</text>
</g>
<!-- IPartida&#45;&gt;Partida -->
<g id="edge3" class="edge">
<title>IPartida&#45;&gt;Partida</title>
<path fill="none" stroke="#475569" stroke-dasharray="5,2" d="M184.21,-318.45C176.81,-300.53 168.5,-280.39 160.85,-261.87"/>
<polygon fill="none" stroke="#475569" points="181.42,-319.48 187.41,-326.21 186.92,-317.21 181.42,-319.48"/>
</g>
<!-- VentanaPrincipal -->
<g id="node5" class="node">
<title>VentanaPrincipal</title>
<polygon fill="none" stroke="#475569" stroke-width="1.3" points="297.9,-146.7 297.9,-251.1 556.64,-251.1 556.64,-146.7 297.9,-146.7"/>
<text xml:space="preserve" text-anchor="middle" x="427.27" y="-228.6" font-family="Arial" font-size="17.00">VentanaPrincipal</text>
<polyline fill="none" stroke="#475569" stroke-width="1.3" points="297.9,-216.3 556.64,-216.3"/>
<text xml:space="preserve" text-anchor="start" x="307.26" y="-193.8" font-family="Arial" font-size="17.00">&#45; controlador: ControladorJuego</text>
<polyline fill="none" stroke="#475569" stroke-width="1.3" points="297.9,-181.5 556.64,-181.5"/>
<text xml:space="preserve" text-anchor="start" x="307.26" y="-159" font-family="Arial" font-size="17.00">+ cerrar(): void</text>
</g>
<!-- IVistaJuego&#45;&gt;VentanaPrincipal -->
<g id="edge4" class="edge">
<title>IVistaJuego&#45;&gt;VentanaPrincipal</title>
<path fill="none" stroke="#475569" stroke-dasharray="5,2" d="M456.13,-318.11C450.96,-296.91 445.04,-272.67 439.91,-251.68"/>
<polygon fill="none" stroke="#475569" points="453.19,-318.58 458.1,-326.14 458.97,-317.17 453.19,-318.58"/>
</g>
<!-- IVistaJuego&#45;&gt;EstadoVistaJuego -->
<g id="edge9" class="edge">
<title>IVistaJuego&#45;&gt;EstadoVistaJuego</title>
<path fill="none" stroke="#475569" stroke-dasharray="5,2" d="M510.06,-327.44C538.09,-296.88 570.27,-261.8 570.27,-261.8 570.27,-261.8 607.89,-152.35 629.48,-89.53"/>
<polygon fill="#475569" stroke="#475569" points="632.15,-81.77 633,-91.05 631.16,-84.63 629.39,-89.81 629.39,-89.81 629.39,-89.81 631.16,-84.63 625.77,-88.56 632.15,-81.77"/>
</g>
<!-- VentanaPrincipal&#45;&gt;ControladorJuego -->
<g id="edge6" class="edge">
<title>VentanaPrincipal&#45;&gt;ControladorJuego</title>
<path fill="none" stroke="#475569" d="M557.05,-224.54C647.96,-241.8 753.27,-261.8 753.27,-261.8 753.27,-261.8 940.27,-283.8 940.27,-283.8 940.27,-283.8 1013.27,-320.2 1013.27,-320.2 1013.27,-320.2 1013.27,-425.6 1013.27,-425.6 1013.27,-425.6 878.63,-472.33 770.48,-509.87"/>
<polygon fill="#475569" stroke="#475569" points="762.58,-512.61 769.36,-506.21 765.44,-511.61 770.61,-509.82 770.61,-509.82 770.61,-509.82 765.44,-511.61 771.86,-513.43 762.58,-512.61"/>
<text xml:space="preserve" text-anchor="middle" x="1054.96" y="-369.3" font-family="Arial" font-size="12.00">controlador 0..1</text>
</g>
<!-- JFrame -->
<g id="node6" class="node">
<title>JFrame</title>
<polygon fill="none" stroke="#475569" stroke-width="1.3" points="347.04,-10.7 347.04,-80.3 507.5,-80.3 507.5,-10.7 347.04,-10.7"/>
<text xml:space="preserve" text-anchor="middle" x="427.27" y="-57.8" font-family="Arial" font-size="17.00">JFrame</text>
<polyline fill="none" stroke="#475569" stroke-width="1.3" points="347.04,-45.5 507.5,-45.5"/>
<text xml:space="preserve" text-anchor="middle" x="427.27" y="-23" font-family="Arial" font-size="17.00">«biblioteca Swing»</text>
</g>
<!-- VentanaPrincipal&#45;&gt;JFrame -->
<g id="edge5" class="edge">
<title>VentanaPrincipal&#45;&gt;JFrame</title>
<path fill="none" stroke="#475569" d="M427.27,-146.22C427.27,-128.17 427.27,-108.1 427.27,-90.72"/>
<polygon fill="none" stroke="#475569" points="430.25,-90.84 427.27,-82.34 424.3,-90.84 430.25,-90.84"/>
</g>
<!-- IRepositorioEstadisticas -->
<g id="node9" class="node">
<title>IRepositorioEstadisticas</title>
<polygon fill="none" stroke="#475569" stroke-width="1.3" points="767.02,-143.7 767.02,-254.1 1003.52,-254.1 1003.52,-143.7 767.02,-143.7"/>
<text xml:space="preserve" text-anchor="middle" x="885.27" y="-231.6" font-family="Arial" font-size="17.00">«interface»</text>
<text xml:space="preserve" text-anchor="middle" x="885.27" y="-211.2" font-family="Arial" font-size="17.00">IRepositorioEstadisticas</text>
<polyline fill="none" stroke="#475569" stroke-width="1.3" points="767.02,-198.9 1003.52,-198.9"/>
<text xml:space="preserve" text-anchor="start" x="776.38" y="-176.4" font-family="Arial" font-size="17.00">+ cargar(): Properties</text>
<text xml:space="preserve" text-anchor="start" x="776.38" y="-156" font-family="Arial" font-size="17.00">+ guardar(r: Properties): void</text>
</g>
<!-- ServicioEstadisticas&#45;&gt;IRepositorioEstadisticas -->
<g id="edge10" class="edge">
<title>ServicioEstadisticas&#45;&gt;IRepositorioEstadisticas</title>
<path fill="none" stroke="#475569" d="M860.77,-320.29C864.39,-302.52 868.48,-282.39 872.28,-263.76"/>
<polygon fill="#475569" stroke="#475569" points="873.93,-255.65 875.98,-264.74 873.32,-258.62 872.23,-263.98 872.23,-263.98 872.23,-263.98 873.32,-258.62 868.48,-263.22 873.93,-255.65"/>
<text xml:space="preserve" text-anchor="middle" x="900.79" y="-287.4" font-family="Arial" font-size="12.00">repositorio 1</text>
</g>
<!-- RepositorioEstadisticasArchivo -->
<g id="node10" class="node">
<title>RepositorioEstadisticasArchivo</title>
<polygon fill="none" stroke="#475569" stroke-width="1.3" points="773.22,-0.5 773.22,-90.5 1025.32,-90.5 1025.32,-0.5 773.22,-0.5"/>
<text xml:space="preserve" text-anchor="middle" x="899.27" y="-68" font-family="Arial" font-size="17.00">RepositorioEstadisticasArchivo</text>
<polyline fill="none" stroke="#475569" stroke-width="1.3" points="773.22,-55.7 1025.32,-55.7"/>
<text xml:space="preserve" text-anchor="start" x="782.58" y="-33.2" font-family="Arial" font-size="17.00">+ cargar(): Properties</text>
<text xml:space="preserve" text-anchor="start" x="782.58" y="-12.8" font-family="Arial" font-size="17.00">+ guardar(r: Properties): void</text>
</g>
<!-- IRepositorioEstadisticas&#45;&gt;RepositorioEstadisticasArchivo -->
<g id="edge11" class="edge">
<title>IRepositorioEstadisticas&#45;&gt;RepositorioEstadisticasArchivo</title>
<path fill="none" stroke="#475569" stroke-dasharray="5,2" d="M891.23,-133.48C892.55,-119.21 893.92,-104.4 895.14,-91.13"/>
<polygon fill="none" stroke="#475569" points="888.28,-133 890.46,-141.73 894.21,-133.54 888.28,-133"/>
</g>
</g>
</svg>
